<?xml version="1.0" standalone="no"?>
<!DOCTYPE svg PUBLIC "-//W3C//DTD SVG 20010904//EN"
 "http://www.w3.org/TR/2001/REC-SVG-20010904/DTD/svg10.dtd">
<svg version="1.0" xmlns="http://www.w3.org/2000/svg"
 width="512.000000pt" height="512.000000pt" viewBox="0 0 512.000000 512.000000"
 preserveAspectRatio="xMidYMid meet">
<metadata>
Created by potrace 1.11, written by Peter Selinger 2001-2013
</metadata>
<g transform="translate(0.000000,512.000000) scale(0.100000,-0.100000)"
fill="#000000" stroke="none">
<path d="M1060 4784 c-31 -7 -188 -61 -350 -119 -162 -59 -358 -129 -435 -157
-77 -27 -147 -52 -155 -55 -8 -3 -21 -7 -28 -9 -31 -6 -78 -42 -86 -66 -14
-41 100 -347 137 -368 30 -17 38 -15 227 53 603 218 721 260 725 255 3 -2 30
-74 61 -159 121 -335 136 -375 150 -407 8 -18 14 -37 14 -42 0 -5 5 -21 12
-37 6 -15 12 -32 14 -38 6 -21 505 -1391 514 -1410 5 -11 73 -197 151 -414
l143 -394 -25 -21 c-31 -27 -98 -119 -121 -166 -53 -109 -73 -210 -65 -324 16
-228 153 -426 358 -520 98 -45 166 -59 270 -59 206 2 402 108 511 278 63 97
88 169 103 284 3 25 6 46 8 47 1 2 147 55 322 119 176 64 361 131 410 149 50
19 155 57 235 85 80 29 153 56 162 61 10 6 23 10 29 10 6 0 25 6 42 14 18 8
178 67 357 131 179 65 330 120 337 122 16 6 34 54 29 80 -13 63 -111 309 -130
325 -23 20 -79 17 -126 -7 -55 -27 -182 -66 -189 -58 -5 4 -88 229 -185 498
-98 270 -181 499 -186 510 -5 11 -88 238 -184 505 -180 496 -191 520 -241 520
-24 0 -26 3 -55 87 -17 46 -17 53 -3 64 39 33 36 52 -42 267 -80 223 -95 246
-149 238 -28 -5 -139 -44 -496 -176 -58 -21 -312 -113 -565 -205 -253 -91
-480 -174 -505 -184 -25 -10 -68 -26 -96 -35 -61 -20 -94 -48 -94 -81 0 -14
61 -193 136 -397 74 -205 144 -395 153 -423 10 -27 46 -124 79 -215 33 -91 81
-221 105 -290 25 -69 62 -170 82 -225 220 -599 316 -867 312 -871 -2 -3 -127
15 -153 21 -6 2 -59 137 -119 301 -59 165 -120 333 -135 374 -15 41 -76 208
-135 370 -59 162 -131 361 -161 442 -30 81 -54 150 -54 154 0 3 -6 20 -14 37
-8 18 -36 91 -61 162 -317 879 -427 1172 -458 1217 -84 125 -239 186 -387 152z"/>
</g>
</svg>
